<?xml version="1.0" encoding="UTF-8"?>
<!DOCTYPE svg PUBLIC "-//W3C//DTD SVG 1.1//EN" "http://www.w3.org/Graphics/SVG/1.1/DTD/svg11.dtd">
<svg xmlns="http://www.w3.org/2000/svg" version="1.1" width="5007px" height="1348px" style="shape-rendering:geometricPrecision; text-rendering:geometricPrecision; image-rendering:optimizeQuality; fill-rule:evenodd; clip-rule:evenodd" xmlns:xlink="http://www.w3.org/1999/xlink">
<g><path style="opacity:0.996" fill="#f26e21" d="M 589.5,-0.5 C 656.833,-0.5 724.167,-0.5 791.5,-0.5C 791.5,65.8333 791.5,132.167 791.5,198.5C 746.167,198.5 700.833,198.5 655.5,198.5C 648.167,198.5 640.833,198.5 633.5,198.5C 618.833,198.5 604.167,198.5 589.5,198.5C 589.5,132.167 589.5,65.8333 589.5,-0.5 Z"/></g>
<g><path style="opacity:0.988" fill="#4c4d4e" d="M 4644.5,78.5 C 4695.16,75.6092 4743.82,83.9425 4790.5,103.5C 4791.58,104.365 4791.75,105.365 4791,106.5C 4782.02,128.432 4772.86,150.265 4763.5,172C 4754.21,169.24 4744.88,166.24 4735.5,163C 4699.12,152.181 4662.46,150.847 4625.5,159C 4589.21,170.95 4563.38,194.45 4548,229.5C 4531.2,271.869 4526.86,315.535 4535,360.5C 4550.59,436.743 4597.42,475.41 4675.5,476.5C 4708.38,475.292 4740.04,468.792 4770.5,457C 4778.87,479.61 4786.54,502.443 4793.5,525.5C 4721.39,554.925 4647.72,559.425 4572.5,539C 4500.76,515.926 4455.93,467.759 4438,394.5C 4428.98,349.996 4428.15,305.329 4435.5,260.5C 4454.77,162.731 4513.1,103.565 4610.5,83C 4621.94,81.1545 4633.27,79.6545 4644.5,78.5 Z"/></g>
<g><path style="opacity:0.993" fill="#4c4d4e" d="M 1379.5,86.5 C 1436.83,86.3333 1494.17,86.5 1551.5,87C 1583.58,87.9357 1613.91,95.6024 1642.5,110C 1673.13,128.406 1689.63,155.573 1692,191.5C 1694.85,240.578 1674.35,275.745 1630.5,297C 1698.26,314.793 1728.09,358.626 1720,428.5C 1713.06,468.886 1691.56,498.719 1655.5,518C 1624.63,533.218 1591.96,541.551 1557.5,543C 1498.17,543.5 1438.83,543.667 1379.5,543.5C 1379.5,391.167 1379.5,238.833 1379.5,86.5 Z M 1471.5,154.5 C 1494.17,154.333 1516.84,154.5 1539.5,155C 1584.07,160.3 1602.9,185.133 1596,229.5C 1589.52,256.645 1572.35,271.811 1544.5,275C 1520.17,275.5 1495.84,275.667 1471.5,275.5C 1471.5,235.167 1471.5,194.833 1471.5,154.5 Z M 1471.5,341.5 C 1498.86,341.115 1526.19,341.615 1553.5,343C 1570.68,344.725 1586.35,350.391 1600.5,360C 1620.75,379.16 1627.25,402.327 1620,429.5C 1614.02,448.149 1601.85,460.983 1583.5,468C 1573.57,472.066 1563.24,474.399 1552.5,475C 1525.5,475.5 1498.5,475.667 1471.5,475.5C 1471.5,430.833 1471.5,386.167 1471.5,341.5 Z"/></g>
<g><path style="opacity:0.993" fill="#4c4d4e" d="M 1752.5,86.5 C 1809.83,86.3333 1867.17,86.5 1924.5,87C 1956.58,87.9357 1986.91,95.6024 2015.5,110C 2046.13,128.4 2062.63,155.567 2065,191.5C 2067.84,240.585 2047.34,275.751 2003.5,297C 2071.26,314.793 2101.09,358.626 2093,428.5C 2086.06,468.886 2064.56,498.719 2028.5,518C 1997.63,533.218 1964.96,541.551 1930.5,543C 1871.17,543.5 1811.83,543.667 1752.5,543.5C 1752.5,391.167 1752.5,238.833 1752.5,86.5 Z M 1844.5,154.5 C 1867.17,154.333 1889.84,154.5 1912.5,155C 1958.66,161.47 1977.16,187.637 1968,233.5C 1960.31,258.284 1943.48,272.117 1917.5,275C 1893.17,275.5 1868.84,275.667 1844.5,275.5C 1844.5,235.167 1844.5,194.833 1844.5,154.5 Z M 1844.5,341.5 C 1867.84,341.333 1891.17,341.5 1914.5,342C 1935.98,342.283 1955.65,348.283 1973.5,360C 1993.61,379.181 2000.11,402.347 1993,429.5C 1987.02,448.149 1974.85,460.983 1956.5,468C 1946.57,472.066 1936.24,474.399 1925.5,475C 1898.5,475.5 1871.5,475.667 1844.5,475.5C 1844.5,430.833 1844.5,386.167 1844.5,341.5 Z"/></g>
<g><path style="opacity:0.99" fill="#4c4d4e" d="M 2162.5,86.5 C 2208.17,86.5 2253.83,86.5 2299.5,86.5C 2335.63,195.725 2372.46,304.725 2410,413.5C 2447.28,304.502 2484.44,195.502 2521.5,86.5C 2567.55,85.8414 2613.38,86.5081 2659,88.5C 2678.22,239.562 2688.72,391.229 2690.5,543.5C 2658.5,543.5 2626.5,543.5 2594.5,543.5C 2593.98,422.473 2587.15,301.806 2574,181.5C 2531.97,301.908 2490.14,422.408 2448.5,543C 2418.59,543.828 2388.76,543.662 2359,542.5C 2318.39,421.351 2277.39,300.351 2236,179.5C 2223.78,300.529 2217.28,421.862 2216.5,543.5C 2187.17,543.5 2157.83,543.5 2128.5,543.5C 2130.41,390.414 2141.74,238.08 2162.5,86.5 Z"/></g>
<g><path style="opacity:0.993" fill="#4c4d4e" d="M 2752.5,86.5 C 2812.83,86.3333 2873.17,86.5 2933.5,87C 2970.44,88.0621 3004.44,98.3954 3035.5,118C 3060.69,136.868 3075.19,162.035 3079,193.5C 3084.19,264.626 3053.02,311.459 2985.5,334C 3026.17,403.667 3066.83,473.333 3107.5,543C 3070.5,543.833 3033.5,543.667 2996.5,542.5C 2961.58,480.328 2926.91,417.995 2892.5,355.5C 2877.18,354.501 2861.85,354.167 2846.5,354.5C 2846.5,417.5 2846.5,480.5 2846.5,543.5C 2815.17,543.5 2783.83,543.5 2752.5,543.5C 2752.5,391.167 2752.5,238.833 2752.5,86.5 Z M 2846.5,155.5 C 2869.17,155.333 2891.84,155.5 2914.5,156C 2965.69,161.907 2986.52,190.074 2977,240.5C 2969.92,259.245 2957.09,272.412 2938.5,280C 2931.04,282.782 2923.37,284.782 2915.5,286C 2892.53,287.412 2869.53,287.912 2846.5,287.5C 2846.5,243.5 2846.5,199.5 2846.5,155.5 Z"/></g>
<g><path style="opacity:0.988" fill="#4c4d4e" d="M 3155.5,86.5 C 3187.17,86.5 3218.83,86.5 3250.5,86.5C 3250.5,238.833 3250.5,391.167 3250.5,543.5C 3218.83,543.5 3187.17,543.5 3155.5,543.5C 3155.5,391.167 3155.5,238.833 3155.5,86.5 Z"/></g>
<g><path style="opacity:0.992" fill="#4c4d4e" d="M 3518.5,86.5 C 3613.5,86.5 3708.5,86.5 3803.5,86.5C 3803.5,109.833 3803.5,133.167 3803.5,156.5C 3739.83,156.5 3676.17,156.5 3612.5,156.5C 3612.5,195.167 3612.5,233.833 3612.5,272.5C 3667.5,272.5 3722.5,272.5 3777.5,272.5C 3777.5,295.5 3777.5,318.5 3777.5,341.5C 3722.5,341.5 3667.5,341.5 3612.5,341.5C 3612.5,385.5 3612.5,429.5 3612.5,473.5C 3677.17,473.5 3741.83,473.5 3806.5,473.5C 3806.5,496.833 3806.5,520.167 3806.5,543.5C 3710.5,543.5 3614.5,543.5 3518.5,543.5C 3518.5,391.167 3518.5,238.833 3518.5,86.5 Z"/></g>
<g><path style="opacity:0.993" fill="#4c4d4e" d="M 3873.5,86.5 C 3933.83,86.3333 3994.17,86.5 4054.5,87C 4091.44,88.0621 4125.44,98.3954 4156.5,118C 4186.81,141.131 4201.81,171.965 4201.5,210.5C 4200.38,265.751 4174.71,304.585 4124.5,327C 4118.5,329.333 4112.5,331.667 4106.5,334C 4147.17,403.667 4187.83,473.333 4228.5,543C 4191.5,543.833 4154.5,543.667 4117.5,542.5C 4082.83,480.167 4048.17,417.833 4013.5,355.5C 3998.18,354.501 3982.85,354.167 3967.5,354.5C 3967.5,417.5 3967.5,480.5 3967.5,543.5C 3936.17,543.5 3904.83,543.5 3873.5,543.5C 3873.5,391.167 3873.5,238.833 3873.5,86.5 Z M 3967.5,155.5 C 3990.17,155.333 4012.84,155.5 4035.5,156C 4085.29,161.102 4106.46,188.269 4099,237.5C 4092.44,257.729 4079.27,271.895 4059.5,280C 4052.04,282.783 4044.37,284.783 4036.5,286C 4013.53,287.412 3990.53,287.912 3967.5,287.5C 3967.5,243.5 3967.5,199.5 3967.5,155.5 Z"/></g>
<g><path style="opacity:0.988" fill="#4c4d4e" d="M 4276.5,86.5 C 4308.17,86.5 4339.83,86.5 4371.5,86.5C 4371.5,238.833 4371.5,391.167 4371.5,543.5C 4339.83,543.5 4308.17,543.5 4276.5,543.5C 4276.5,391.167 4276.5,238.833 4276.5,86.5 Z"/></g>
<g><path style="opacity:0.946" fill="#4c4d4e" d="M 5006.5,151.5 C 5006.5,159.833 5006.5,168.167 5006.5,176.5C 4995.61,216.522 4969.28,235.689 4927.5,234C 4887.86,227.366 4866.86,204.032 4864.5,164C 4867.24,124.923 4887.91,101.923 4926.5,95C 4968.37,92.7482 4995.04,111.582 5006.5,151.5 Z M 4927.5,109.5 C 4961.39,108.229 4981.56,124.229 4988,157.5C 4989.94,180.114 4981.77,197.947 4963.5,211C 4937.79,224.057 4914.96,220.224 4895,199.5C 4878.13,175.246 4878.47,151.246 4896,127.5C 4904.72,118.23 4915.22,112.23 4927.5,109.5 Z M 4931.5,140.5 C 4936.42,140.708 4941.09,141.875 4945.5,144C 4950.13,150.162 4949.13,155.162 4942.5,159C 4936.91,160.289 4931.24,160.789 4925.5,160.5C 4925.5,154.167 4925.5,147.833 4925.5,141.5C 4927.74,141.795 4929.74,141.461 4931.5,140.5 Z"/></g>
<g><path style="opacity:0.95" fill="#4c4d4e" d="M 4922.5,128.5 C 4931.88,128.184 4941.22,128.684 4950.5,130C 4963.34,133.152 4968.5,141.318 4966,154.5C 4963.44,160.061 4959.27,163.894 4953.5,166C 4958.5,168.801 4962,172.968 4964,178.5C 4965.53,185.943 4967.36,193.276 4969.5,200.5C 4963.49,200.666 4957.49,200.499 4951.5,200C 4948.77,192.601 4946.27,185.101 4944,177.5C 4942.79,175.951 4941.29,174.785 4939.5,174C 4934.9,172.878 4930.23,172.378 4925.5,172.5C 4925.5,181.833 4925.5,191.167 4925.5,200.5C 4919.83,200.5 4914.17,200.5 4908.5,200.5C 4908.5,177.167 4908.5,153.833 4908.5,130.5C 4913.34,130.089 4918.01,129.422 4922.5,128.5 Z M 4931.5,140.5 C 4929.74,141.461 4927.74,141.795 4925.5,141.5C 4925.5,147.833 4925.5,154.167 4925.5,160.5C 4931.24,160.789 4936.91,160.289 4942.5,159C 4949.13,155.162 4950.13,150.162 4945.5,144C 4941.09,141.875 4936.42,140.708 4931.5,140.5 Z"/></g>
<g><path style="opacity:0.951" fill="#004585" d="M 633.5,198.5 C 640.833,198.5 648.167,198.5 655.5,198.5C 617.045,284.076 578.045,369.41 538.5,454.5C 531.167,454.5 523.833,454.5 516.5,454.5C 555.5,369.167 594.5,283.833 633.5,198.5 Z"/></g>
<g><path style="opacity:0.989" fill="#004585" d="M 953.5,623.5 C 946.5,623.5 939.5,623.5 932.5,623.5C 953.873,569.081 975.54,514.748 997.5,460.5C 943.102,427.524 923.268,379.857 938,317.5C 954.183,272.648 985.683,245.815 1032.5,237C 1078.35,231.026 1116.19,245.526 1146,280.5C 1173.02,317.998 1178.02,358.331 1161,401.5C 1136.02,450.586 1095.85,473.753 1040.5,471C 1032.63,470.46 1024.97,468.96 1017.5,466.5C 996.162,518.853 974.828,571.186 953.5,623.5 Z"/></g>
<g><path style="opacity:0.984" fill="#004684" d="M 435.5,479.5 C 435.811,480.478 436.478,481.145 437.5,481.5C 438.664,487.807 438.831,494.141 438,500.5C 437.23,499.402 436.397,499.402 435.5,500.5C 348.506,464.92 261.672,428.92 175,392.5C 160.181,419.013 137.681,434.846 107.5,440C 60.6007,444.81 26.7673,426.31 6,384.5C 3.18769,377.23 1.02103,369.896 -0.5,362.5C -0.5,353.167 -0.5,343.833 -0.5,334.5C 6.53043,298.626 27.1971,274.126 61.5,261C 108.045,248.381 145.212,261.548 173,300.5C 186.052,323.754 189.219,348.254 182.5,374C 182.645,374.772 182.978,375.439 183.5,376C 267.415,410.802 351.415,445.302 435.5,479.5 Z"/></g>
<g><path style="opacity:0.982" fill="#4c4d4e" d="M 3290.5,332.5 C 3352.17,332.5 3413.83,332.5 3475.5,332.5C 3475.5,355.5 3475.5,378.5 3475.5,401.5C 3413.83,401.5 3352.17,401.5 3290.5,401.5C 3290.5,378.5 3290.5,355.5 3290.5,332.5 Z"/></g>
<g><path style="opacity:0.994" fill="#f26e21" d="M 516.5,454.5 C 523.833,454.5 531.167,454.5 538.5,454.5C 546.5,454.5 554.5,454.5 562.5,454.5C 562.5,479.5 562.5,504.5 562.5,529.5C 561.167,536.167 561.167,542.833 562.5,549.5C 562.5,559.167 562.5,568.833 562.5,578.5C 551.833,578.5 541.167,578.5 530.5,578.5C 523.5,578.5 516.5,578.5 509.5,578.5C 484.833,578.5 460.167,578.5 435.5,578.5C 435.5,574.833 435.5,571.167 435.5,567.5C 435.811,566.522 436.478,565.855 437.5,565.5C 438.497,558.866 438.83,552.2 438.5,545.5C 437.209,545.737 436.209,545.404 435.5,544.5C 435.5,529.833 435.5,515.167 435.5,500.5C 436.397,499.402 437.23,499.402 438,500.5C 438.831,494.141 438.664,487.807 437.5,481.5C 436.478,481.145 435.811,480.478 435.5,479.5C 435.5,471.167 435.5,462.833 435.5,454.5C 462.5,454.5 489.5,454.5 516.5,454.5 Z"/></g>
<g><path style="opacity:0.949" fill="#024684" d="M 562.5,529.5 C 666.423,567.697 770.423,605.697 874.5,643.5C 875.15,643.804 875.817,644.137 876.5,644.5C 877.496,650.463 877.829,656.463 877.5,662.5C 876.209,662.263 875.209,662.596 874.5,663.5C 770.5,625.5 666.5,587.5 562.5,549.5C 561.167,542.833 561.167,536.167 562.5,529.5 Z"/></g>
<g><path style="opacity:0.976" fill="#004684" d="M 435.5,544.5 C 436.209,545.404 437.209,545.737 438.5,545.5C 438.83,552.2 438.497,558.866 437.5,565.5C 436.478,565.855 435.811,566.522 435.5,567.5C 349.32,620.419 263.654,674.086 178.5,728.5C 191.051,762.8 183.384,791.633 155.5,815C 133.694,829.305 110.361,832.305 85.5,824C 48.8951,806.959 34.3951,778.459 42,738.5C 53.1208,705.433 76.1208,687.766 111,685.5C 134.094,685.552 153.094,694.219 168,711.5C 257.111,655.697 346.277,600.031 435.5,544.5 Z"/></g>
<g><path style="opacity:0.953" fill="#004585" d="M 509.5,578.5 C 516.5,578.5 523.5,578.5 530.5,578.5C 555.063,648.962 579.063,719.629 602.5,790.5C 595.5,790.5 588.5,790.5 581.5,790.5C 557.304,719.913 533.304,649.246 509.5,578.5 Z"/></g>
<g><path style="opacity:0.987" fill="#f26e21" d="M 932.5,623.5 C 939.5,623.5 946.5,623.5 953.5,623.5C 959.833,623.5 966.167,623.5 972.5,623.5C 972.5,655.5 972.5,687.5 972.5,719.5C 967.833,719.5 963.167,719.5 958.5,719.5C 950.833,718.167 943.167,718.167 935.5,719.5C 915.167,719.5 894.833,719.5 874.5,719.5C 874.5,700.833 874.5,682.167 874.5,663.5C 875.209,662.596 876.209,662.263 877.5,662.5C 877.829,656.463 877.496,650.463 876.5,644.5C 875.817,644.137 875.15,643.804 874.5,643.5C 874.5,636.833 874.5,630.167 874.5,623.5C 893.833,623.5 913.167,623.5 932.5,623.5 Z"/></g>
<g><path style="opacity:0.971" fill="#004684" d="M 935.5,719.5 C 943.167,718.167 950.833,718.167 958.5,719.5C 989.153,782.14 1019.82,844.807 1050.5,907.5C 1070.3,904.489 1087.47,909.822 1102,923.5C 1117.05,943.244 1118.38,963.911 1106,985.5C 1091.43,1003.86 1072.6,1010.36 1049.5,1005C 1020.13,994.101 1008.63,973.268 1015,942.5C 1018.58,932.348 1024.41,923.681 1032.5,916.5C 1000.39,850.619 968.059,784.952 935.5,719.5 Z"/></g>
<g><path style="opacity:0.992" fill="#f26e21" d="M 581.5,790.5 C 588.5,790.5 595.5,790.5 602.5,790.5C 640.5,790.5 678.5,790.5 716.5,790.5C 716.5,851.833 716.5,913.167 716.5,974.5C 679.167,974.5 641.833,974.5 604.5,974.5C 597.265,973.189 589.932,973.189 582.5,974.5C 565.167,974.5 547.833,974.5 530.5,974.5C 530.5,913.167 530.5,851.833 530.5,790.5C 547.5,790.5 564.5,790.5 581.5,790.5 Z"/></g>
<g><path style="opacity:0.987" fill="#f26f20" d="M 1873.5,794.5 C 1911.87,791.821 1949.53,795.654 1986.5,806C 2048.99,827.161 2089.83,869.328 2109,932.5C 2122.49,983.243 2125.16,1034.58 2117,1086.5C 2108.6,1140.14 2084.44,1184.98 2044.5,1221C 1999.95,1255.65 1949.29,1271.82 1892.5,1269.5C 1843.33,1271.5 1797.66,1260 1755.5,1235C 1715.47,1206.15 1690.63,1167.32 1681,1118.5C 1669.07,1062.33 1669.73,1006.33 1683,950.5C 1705.75,867.416 1759.25,816.916 1843.5,799C 1853.62,797.322 1863.62,795.822 1873.5,794.5 Z M 1877.5,867.5 C 1949.29,862.125 1995.46,893.792 2016,962.5C 2028.89,1010.93 2028.56,1059.27 2015,1107.5C 1993.63,1171.62 1949.13,1200.79 1881.5,1195C 1827.2,1188.37 1793.03,1158.54 1779,1105.5C 1766.8,1056.23 1766.47,1006.9 1778,957.5C 1792.46,906.533 1825.62,876.533 1877.5,867.5 Z"/></g>
<g><path style="opacity:0.987" fill="#f26f20" d="M 3577.5,794.5 C 3615.87,791.821 3653.53,795.654 3690.5,806C 3752.99,827.161 3793.83,869.328 3813,932.5C 3826.49,983.243 3829.16,1034.58 3821,1086.5C 3812.6,1140.14 3788.44,1184.98 3748.5,1221C 3703.95,1255.65 3653.29,1271.82 3596.5,1269.5C 3547.33,1271.5 3501.66,1260 3459.5,1235C 3419.47,1206.15 3394.63,1167.32 3385,1118.5C 3373.07,1062.33 3373.73,1006.33 3387,950.5C 3409.75,867.416 3463.25,816.916 3547.5,799C 3557.62,797.322 3567.62,795.822 3577.5,794.5 Z M 3581.5,867.5 C 3653.29,862.125 3699.46,893.792 3720,962.5C 3732.89,1010.93 3732.56,1059.27 3719,1107.5C 3697.63,1171.62 3653.13,1200.79 3585.5,1195C 3531.2,1188.37 3497.03,1158.54 3483,1105.5C 3470.8,1056.23 3470.47,1006.9 3482,957.5C 3496.46,906.533 3529.62,876.533 3581.5,867.5 Z"/></g>
<g><path style="opacity:0.985" fill="#f26f20" d="M 2403.5,795.5 C 2452.86,791.883 2500.19,799.883 2545.5,819.5C 2545.83,820 2546.17,820.5 2546.5,821C 2539.19,844.435 2532.19,867.935 2525.5,891.5C 2500.41,879.81 2474.08,872.31 2446.5,869C 2387.06,862.141 2341.89,883.974 2311,934.5C 2300.3,955.264 2293.63,977.264 2291,1000.5C 2287.77,1031.45 2289.44,1062.12 2296,1092.5C 2304.64,1129 2324.48,1157.5 2355.5,1178C 2385.7,1193.37 2417.7,1199.03 2451.5,1195C 2478.52,1192.5 2504.52,1186 2529.5,1175.5C 2535.58,1199 2541.58,1222.5 2547.5,1246C 2515.66,1258.21 2482.66,1265.54 2448.5,1268C 2404.44,1271.75 2361.44,1266.75 2319.5,1253C 2254.91,1227.4 2215.08,1180.56 2200,1112.5C 2188.07,1054.55 2190.4,997.219 2207,940.5C 2234.68,864.5 2288.18,818 2367.5,801C 2379.57,798.662 2391.57,796.828 2403.5,795.5 Z"/></g>
<g><path style="opacity:0.993" fill="#f26f20" d="M 1379.5,803.5 C 1410.17,803.5 1440.83,803.5 1471.5,803.5C 1471.5,931.833 1471.5,1060.17 1471.5,1188.5C 1530.83,1188.5 1590.17,1188.5 1649.5,1188.5C 1649.5,1212.83 1649.5,1237.17 1649.5,1261.5C 1559.5,1261.5 1469.5,1261.5 1379.5,1261.5C 1379.5,1108.83 1379.5,956.167 1379.5,803.5 Z"/></g>
<g><path style="opacity:0.986" fill="#f26f20" d="M 2748.5,803.5 C 2783.84,803.167 2819.17,803.5 2854.5,804.5C 2915.69,954.721 2972.35,1106.72 3024.5,1260.5C 2990.17,1261.5 2955.84,1261.83 2921.5,1261.5C 2912.18,1226.88 2901.85,1192.55 2890.5,1158.5C 2829.84,1157.33 2769.17,1157.17 2708.5,1158C 2697.13,1192.28 2686.46,1226.78 2676.5,1261.5C 2644.5,1261.5 2612.5,1261.5 2580.5,1261.5C 2632.05,1107.1 2688.05,954.429 2748.5,803.5 Z M 2799.5,896.5 C 2823.98,958.604 2846.32,1021.6 2866.5,1085.5C 2821.83,1085.83 2777.16,1085.5 2732.5,1084.5C 2753.17,1021.17 2775.5,958.507 2799.5,896.5 Z"/></g>
<g><path style="opacity:0.992" fill="#f26f20" d="M 2998.5,803.5 C 3113.83,803.5 3229.17,803.5 3344.5,803.5C 3344.5,828.833 3344.5,854.167 3344.5,879.5C 3302.17,879.5 3259.83,879.5 3217.5,879.5C 3217.5,1006.83 3217.5,1134.17 3217.5,1261.5C 3186.83,1261.5 3156.17,1261.5 3125.5,1261.5C 3125.5,1134.17 3125.5,1006.83 3125.5,879.5C 3083.17,879.5 3040.83,879.5 2998.5,879.5C 2998.5,854.167 2998.5,828.833 2998.5,803.5 Z"/></g>
<g><path style="opacity:0.99" fill="#f26f20" d="M 3915.5,803.5 C 3976.17,803.333 4036.83,803.5 4097.5,804C 4133.72,805.958 4166.06,817.958 4194.5,840C 4216.11,860.067 4227.95,884.9 4230,914.5C 4234.63,966.743 4215.13,1006.91 4171.5,1035C 4159.42,1041.19 4147.09,1046.69 4134.5,1051.5C 4172.67,1115.83 4210.83,1180.17 4249,1244.5C 4252.39,1249.95 4255.23,1255.62 4257.5,1261.5C 4223.16,1261.83 4188.83,1261.5 4154.5,1260.5C 4119.67,1197.5 4084.83,1134.5 4050,1071.5C 4035.91,1070.51 4021.75,1070.18 4007.5,1070.5C 4007.5,1134.17 4007.5,1197.83 4007.5,1261.5C 3976.83,1261.5 3946.17,1261.5 3915.5,1261.5C 3915.5,1108.83 3915.5,956.167 3915.5,803.5 Z M 4007.5,876.5 C 4031.84,876.333 4056.17,876.5 4080.5,877C 4120.87,884.047 4138.04,907.88 4132,948.5C 4125.09,971.738 4109.93,986.572 4086.5,993C 4081.55,994.256 4076.55,995.256 4071.5,996C 4050.18,997.239 4028.85,997.739 4007.5,997.5C 4007.5,957.167 4007.5,916.833 4007.5,876.5 Z"/></g>
<g><path style="opacity:0.972" fill="#004684" d="M 604.5,974.5 C 574.843,1065.81 545.176,1157.14 515.5,1248.5C 542.667,1266.82 549.834,1291.15 537,1321.5C 528.817,1335.17 516.983,1343.84 501.5,1347.5C 493.5,1347.5 485.5,1347.5 477.5,1347.5C 447.546,1338.29 434.046,1317.96 437,1286.5C 441.284,1266.88 452.784,1253.38 471.5,1246C 479.696,1243.88 488.029,1243.05 496.5,1243.5C 525.167,1153.83 553.833,1064.17 582.5,974.5C 589.932,973.189 597.265,973.189 604.5,974.5 Z"/></g>
</svg>
